<svg width="200" height="200" xmlns="http://www.w3.org/2000/svg"><g fill="none" fill-rule="evenodd"><path fill="none" d="M0 0h200v200H0z"/><g fill-rule="nonzero"><path fill="#919BAA" opacity=".32" d="M136.756 174.634l-34.428-10.78-42.67-9.413-31.029-10.593 22.168-25.798 90.329 32.32z"/><path fill="#EAEDEF" d="M20.806 127.837l38.675 25.865 42.847-52.954-38.665-25.865z"/><path fill="#F9FBFC" d="M59.481 153.702l38.422-4.932 43.101-52.955-38.676 4.933z"/><path fill="#E9EDEF" d="M97.903 148.77l38.423 25.864 43.1-52.711-38.422-26.108z"/><g><path fill="#CBD0E0" d="M64.734 129.228l2.03 1.412 24.574-30.234-2.03-1.48zM78.229 120.411l2.03 1.412 14.842-18.217-2.03-1.48z"/><path fill="#E3E8F2" d="M77.457 136.356l2.151-.243L103.807 106h-2.218zM90.632 131.743l2.151-.253 8.872-11.079h-2.218zM101.655 117.697l2.152-.243 8.872-11.079h-2.218zM87.123 129.857l2.151-.243 18.847-23.58h-2.218z"/><path fill="#E4E9EE" d="M104.833 140.46l-6.09.674 19.453-24.375 6.4-.74z"/><path fill="#C9D0DE" d="M104.833 140.46l11.024 7.515 19.707-24.629-10.968-7.327zM49.583 109.178l10.803 7.834L80.8 92.968l-10.737-7.647zM151.719 138.971l1.942 1.512 14.808-18.108-2.218-1.567z"/></g></g></g></svg>